# xmcd CD database file
#
# Track frame offsets:
#	150
#	16950
#	29137
#	43632
#	56627
#	70675
#	90562
#	108182
#	124047
#	141297
#	154670
#	169547
#	191460
#	208032
#	224930
#	237600
#	255980
#	269587
#	291972
#	304920
#
# Disc length: 4247 seconds
#
# Revision: 5
# Processed by: cddbd v1.5.2PL0 Copyright (c) Steve Scherf et al.
# Submitted via: CDex 1.51
#
DISCID=2f109514
DTITLE=אביב גפן והתעויוט - ירח מלא - האוסף דיסק  מספר 1
DYEAR=1997
DGENRE=Other
TTITLE0=אור הירח
TTITLE1=אילנה
TTITLE2=כבוד
TTITLE3=אני שונא
TTITLE4=דכאון
TTITLE5=שומקום
TTITLE6=עונות
TTITLE7=על הכנרת בזריחה
TTITLE8=פלוגת הצער
TTITLE9=אמא תראי
TTITLE10=פרופיל 97
TTITLE11=שלום
TTITLE12=הכי קרוב לבד
TTITLE13=אלימות
TTITLE14=עצוב בלעדייך
TTITLE15=אהבנו
TTITLE16=מיליארד טועים
TTITLE17=המכתב
TTITLE18=מלאך
TTITLE19=עכשיו מעונן
EXTD=Shmoolik YEAR: 1997
EXTT0=
EXTT1=
EXTT2=
EXTT3=
EXTT4=
EXTT5=
EXTT6=
EXTT7=
EXTT8=
EXTT9=
EXTT10=
EXTT11=
EXTT12=
EXTT13=
EXTT14=
EXTT15=
EXTT16=
EXTT17=
EXTT18=
EXTT19=
PLAYORDER=
